<svg xmlns="http://www.w3.org/2000/svg" xmlns:xlink="http://www.w3.org/1999/xlink" viewBox="0 0 135.813 31.447">
  <defs>
    <style>
      .cls-1 {
        fill: url(#linear-gradient);
      }

      .cls-2 {
        fill: url(#linear-gradient-2);
      }

      .cls-3 {
        fill: #aa8436;
      }

      .cls-4 {
        fill: url(#linear-gradient-3);
      }
    </style>
    <linearGradient id="linear-gradient" x1="0.095" y1="0.876" x2="1.063" y2="0.099" gradientUnits="objectBoundingBox">
      <stop offset="0" stop-color="#091f38"/>
      <stop offset="0.061" stop-color="#0c223c"/>
      <stop offset="0.346" stop-color="#182d50"/>
      <stop offset="0.608" stop-color="#1f345f"/>
      <stop offset="0.834" stop-color="#223868"/>
      <stop offset="1" stop-color="#23396b"/>
    </linearGradient>
    <linearGradient id="linear-gradient-2" x1="0.5" y1="1" x2="0.5" gradientUnits="objectBoundingBox">
      <stop offset="0" stop-color="#aa8436"/>
      <stop offset="1" stop-color="#efe296"/>
    </linearGradient>
    <linearGradient id="linear-gradient-3" x1="0" y1="0.498" x2="1" y2="0.498" xlink:href="#linear-gradient"/>
  </defs>
  <g id="sindibad_logo" transform="translate(-679 -285)">
    <path id="Tracé_4339" data-name="Tracé 4339" class="cls-1" d="M21.434,1.064a15.731,15.731,0,0,0-19.512,22.2,5.2,5.2,0,0,0,1.808,1.914A12.135,12.135,0,0,0,18.8,23.5a6.98,6.98,0,0,0,1.887-3.429.473.473,0,0,0-.452-.611.429.429,0,0,0-.346.16,6.338,6.338,0,0,1-8.959,0,9.569,9.569,0,0,1-2.791-6.7A9.686,9.686,0,0,1,11.226,5.9a14.836,14.836,0,0,1,4.519-2.924,14.384,14.384,0,0,1,5.5-1.063h.027A.437.437,0,0,0,21.434,1.064Z" transform="translate(678.99 284.999)"/>
    <g id="Groupe_10610" data-name="Groupe 10610" transform="translate(688.722 289.398)">
      <path id="Tracé_4340" data-name="Tracé 4340" class="cls-2" d="M56.392,20.362a5.2,5.2,0,0,0-1.808-1.914A12.1,12.1,0,0,0,39.511,20.1a6.854,6.854,0,0,0-1.887,3.456.471.471,0,0,0,.8.425,1.933,1.933,0,0,1,.239-.213,6.354,6.354,0,0,1,8.746.213,9.336,9.336,0,0,1,2.765,6.752,9.626,9.626,0,0,1-3.084,6.965,14.553,14.553,0,0,1-10.022,3.961h-.027a.452.452,0,0,0-.16.877A15.721,15.721,0,0,0,56.392,20.362Z" transform="translate(-36.582 -16.546)"/>
    </g>
    <g id="Groupe_10612" data-name="Groupe 10612" transform="translate(729.772 310.71)">
      <g id="Groupe_10611" data-name="Groupe 10611">
        <path id="Tracé_4341" data-name="Tracé 4341" class="cls-3" d="M197.54,108.08h.8v5.556h-.8Zm6.433,4.307-3.748-4.307h-.638v5.556h.744v-4.28l3.7,4.28h.691V108.08h-.744Zm1.462-3.615h1.914v4.838h.8v-4.838h1.941v-.718h-4.626v.718Zm6.167,2.419h2.26v-.718H211.6V108.8h2.339v-.718H210.8v5.529h3.217v-.718H211.6Zm7.284,2.047.292.4h-.957l-.239-.372a.329.329,0,0,1-.053-.08l-.159-.213-.239-.4-.266-.425a3.311,3.311,0,0,0-.452-.532,1.6,1.6,0,0,0-.372-.292,1.369,1.369,0,0,0-.558-.08h-.213v2.419h-.8v-5.556h1.382a1.9,1.9,0,0,1,1.329.425,1.471,1.471,0,0,1,.505,1.117,1.518,1.518,0,0,1-.239.851,1.562,1.562,0,0,1-.691.532,2.161,2.161,0,0,1,.532.479c.16.213.4.558.718,1.063C218.62,112.838,218.78,113.077,218.886,113.237Zm-1.7-3.137a.928.928,0,0,0,0-.957.663.663,0,0,0-.4-.292,3.018,3.018,0,0,0-.824-.08h-.239v1.755h.292a1.952,1.952,0,0,0,.824-.106A1,1,0,0,0,217.185,110.1Zm7.018,2.286-3.748-4.307h-.638v5.556h.744v-4.28l3.7,4.28h.691V108.08H224.2Zm4.253-4.333,2.5,5.583h-.824l-.744-1.648h-2.366l-.691,1.648h-.824l2.393-5.583Zm.611,3.217-.9-2.02-.824,2.02Zm1.2-2.5h1.914v4.838h.8v-4.838h1.941v-.718h-4.626v.718Zm5.4,4.865h.8V108.08h-.8Zm6.885-4.812a2.726,2.726,0,0,1,.851,2.047,2.668,2.668,0,0,1-.851,2.02,3.1,3.1,0,0,1-2.18.8,2.954,2.954,0,0,1-2.1-.8,2.646,2.646,0,0,1-.824-2.02,2.726,2.726,0,0,1,.851-2.047,2.994,2.994,0,0,1,2.127-.824A2.885,2.885,0,0,1,242.546,108.824Zm.053,2.02a2.046,2.046,0,0,0-.611-1.489,2.286,2.286,0,0,0-3.084-.027,2.064,2.064,0,0,0-.611,1.515,2,2,0,0,0,.611,1.489,2.287,2.287,0,0,0,3.084-.027A1.9,1.9,0,0,0,242.6,110.844Zm6.194,1.542-3.748-4.307h-.638v5.556h.744v-4.28l3.7,4.28h.691V108.08h-.744Zm4.28-4.333,2.5,5.583h-.824L254,111.988h-2.366l-.691,1.648h-.824l2.393-5.583Zm.585,3.217-.9-2.02-.824,2.02Zm3.3-3.19h-.8v5.556h3.3v-.718h-2.5Zm-64.2,1.223a1.755,1.755,0,1,0,1.755,1.755A1.77,1.77,0,0,0,192.755,109.3Zm70.553,0a1.755,1.755,0,1,0,1.755,1.755A1.77,1.77,0,0,0,263.307,109.3Z" transform="translate(-191 -108)"/>
      </g>
    </g>
    <path id="Tracé_4342" data-name="Tracé 4342" class="cls-4" d="M161.426,30.891a2.325,2.325,0,0,0-.824-1.7,3.473,3.473,0,0,0-2.153-.558c-1.781,0-2.658.611-2.658,1.834a1.348,1.348,0,0,0,.558,1.09,4.948,4.948,0,0,0,1.781.744c.957.213,1.808.425,2.5.638a15.017,15.017,0,0,1,1.941.665,4.529,4.529,0,0,1,.93.505,3.3,3.3,0,0,1,.744.744,3.153,3.153,0,0,1,.479,1.09,5.207,5.207,0,0,1,.186,1.542,4.069,4.069,0,0,1-.452,1.914,4.158,4.158,0,0,1-1.223,1.409,6.022,6.022,0,0,1-1.808.877,7.323,7.323,0,0,1-2.18.292,8.121,8.121,0,0,1-4.918-1.249,4.68,4.68,0,0,1-1.728-3.748h3.031a2.158,2.158,0,0,0,.93,1.808,3.753,3.753,0,0,0,2.286.665,4.051,4.051,0,0,0,2.26-.532,1.735,1.735,0,0,0,.771-1.462,2.678,2.678,0,0,0-.08-.665,1.236,1.236,0,0,0-.346-.558,2.568,2.568,0,0,0-.718-.452,6.284,6.284,0,0,0-1.17-.346,29.594,29.594,0,0,1-2.951-.744,7.5,7.5,0,0,1-2.074-.93,3.77,3.77,0,0,1-1.2-1.329,4.453,4.453,0,0,1-.372-1.994,4.182,4.182,0,0,1,.346-1.728,3.536,3.536,0,0,1,1.037-1.409,5.4,5.4,0,0,1,1.728-.957A7.376,7.376,0,0,1,158.5,26a7.883,7.883,0,0,1,2.446.346,5.915,5.915,0,0,1,1.861.984,4.48,4.48,0,0,1,1.2,1.542,5.018,5.018,0,0,1,.479,2.02h-3.057Zm5.21,10.527V26.479h3.137v14.94Zm14.594,0L174.824,31.37V41.419h-2.9V26.479h3.323L181.2,36.1V26.479h2.924v14.94Zm5.024,0V26.479h5.8a7.344,7.344,0,0,1,2.791.505,6.282,6.282,0,0,1,2.206,1.462,6.958,6.958,0,0,1,1.436,2.286,8.478,8.478,0,0,1,.505,3.057,10.334,10.334,0,0,1-.452,3.11,7.1,7.1,0,0,1-1.329,2.419,5.565,5.565,0,0,1-2.047,1.542,6.146,6.146,0,0,1-2.632.558Zm5.636-2.552a3.436,3.436,0,0,0,2.977-1.276,6.551,6.551,0,0,0,.93-3.828,9.808,9.808,0,0,0-.213-2.153,3.572,3.572,0,0,0-.744-1.489,2.887,2.887,0,0,0-1.3-.824,6.648,6.648,0,0,0-1.914-.266h-2.313V38.84h2.579Zm9.038,2.552V26.479h3.137v14.94Zm5.29,0V26.479h7.364a4.745,4.745,0,0,1,3.35,1.09,3.886,3.886,0,0,1,1.143,2.977,3.209,3.209,0,0,1-.505,1.728,2.8,2.8,0,0,1-1.3,1.063,4.545,4.545,0,0,1,.877.452,3.064,3.064,0,0,1,.718.718,3.1,3.1,0,0,1,.479,1.037,4.525,4.525,0,0,1,.186,1.409,4.053,4.053,0,0,1-1.382,3.243,6.239,6.239,0,0,1-4.2,1.2h-6.726Zm3-12.361V32.3h3.934c1.249,0,1.887-.532,1.887-1.622a1.547,1.547,0,0,0-.479-1.249,2.519,2.519,0,0,0-1.6-.372Zm3.961,9.809a2.379,2.379,0,0,0,1.7-.611,2.082,2.082,0,0,0,.611-1.542,1.655,1.655,0,0,0-.585-1.436,2.756,2.756,0,0,0-1.648-.452H209.25v4.041h3.934Zm16.827,2.552-.957-3.084h-5.529l-1.063,3.084h-3.3l5.343-14.967h3.615l5.29,14.967Zm-3.722-11.59h0l-1.941,5.955h3.8Zm8.826,11.59V26.479h5.8a7.344,7.344,0,0,1,2.791.505,6.282,6.282,0,0,1,2.206,1.462,6.958,6.958,0,0,1,1.436,2.286,8.478,8.478,0,0,1,.505,3.057,10.334,10.334,0,0,1-.452,3.11,7.1,7.1,0,0,1-1.329,2.419,5.565,5.565,0,0,1-2.047,1.542,6.146,6.146,0,0,1-2.632.558Zm5.636-2.552a3.436,3.436,0,0,0,2.977-1.276,6.551,6.551,0,0,0,.93-3.828,9.807,9.807,0,0,0-.213-2.153,3.572,3.572,0,0,0-.744-1.489,2.887,2.887,0,0,0-1.3-.824,6.647,6.647,0,0,0-1.914-.266h-2.313V38.84h2.579Z" transform="translate(566.964 262.911)"/>
  </g>
</svg>
